<?xml version="1.0" encoding="UTF-8" standalone="no"?>
<!-- Created with Inkscape (http://www.inkscape.org/) -->

<svg
   version="1.1"
   id="svg2"
   width="833.70001"
   height="209.39732"
   viewBox="0 0 833.70001 209.39732"
   sodipodi:docname="The_Reset_2022_-_mit_Schriftzug_final.ai"
   xmlns:inkscape="http://www.inkscape.org/namespaces/inkscape"
   xmlns:sodipodi="http://sodipodi.sourceforge.net/DTD/sodipodi-0.dtd"
   xmlns="http://www.w3.org/2000/svg"
   xmlns:svg="http://www.w3.org/2000/svg">
  <defs
     id="defs6">
    <clipPath
       clipPathUnits="userSpaceOnUse"
       id="clipPath34">
      <path
         d="M 0,157.048 H 625.275 V 0 H 0 Z"
         id="path32" />
    </clipPath>
    <linearGradient
       x1="0"
       y1="0"
       x2="1"
       y2="0"
       gradientUnits="userSpaceOnUse"
       gradientTransform="matrix(0,-94.229744,-94.229744,0,285.49136,141.34395)"
       spreadMethod="pad"
       id="linearGradient128">
      <stop
         style="stop-opacity:1;stop-color:#e31e4d"
         offset="0"
         id="stop124" />
      <stop
         style="stop-opacity:1;stop-color:#c3153b"
         offset="1"
         id="stop126" />
    </linearGradient>
    <linearGradient
       x1="0"
       y1="0"
       x2="1"
       y2="0"
       gradientUnits="userSpaceOnUse"
       gradientTransform="matrix(0,94.229744,94.229744,0,231.19035,15.704276)"
       spreadMethod="pad"
       id="linearGradient148">
      <stop
         style="stop-opacity:1;stop-color:#43bbc3"
         offset="0"
         id="stop144" />
      <stop
         style="stop-opacity:1;stop-color:#05abaf"
         offset="1"
         id="stop146" />
    </linearGradient>
  </defs>
  <sodipodi:namedview
     id="namedview4"
     pagecolor="#ffffff"
     bordercolor="#000000"
     borderopacity="0.25"
     inkscape:showpageshadow="2"
     inkscape:pageopacity="0.0"
     inkscape:pagecheckerboard="0"
     inkscape:deskcolor="#d1d1d1" />
  <g
     id="g8"
     inkscape:groupmode="layer"
     inkscape:label="The_Reset_2022_-_mit_Schriftzug_final"
     transform="matrix(1.3333333,0,0,-1.3333333,0,209.39733)">
    <path
       d="M 589.843,39.262 H 34.977 v 78.524 h 554.866 z"
       style="fill:#eeeded;fill-opacity:1;fill-rule:nonzero;stroke:none"
       id="path10" />
    <g
       id="g12"
       transform="translate(0,117.7866)">
      <path
         d="m 0,0 v -29.014 h 17.438 v -49.511 h 33.079 v 49.511 H 67.954 V 0 Z"
         style="fill:#eeeded;fill-opacity:1;fill-rule:nonzero;stroke:none"
         id="path14" />
    </g>
    <g
       id="g16"
       transform="translate(25.9212,96.4465)">
      <path
         d="M 0,0 H -17.438 V 13.488 H 35.549 V 0 H 18.112 V -48.555 H 0 Z"
         style="fill:#333333;fill-opacity:1;fill-rule:nonzero;stroke:none"
         id="path18" />
    </g>
    <g
       id="g20"
       transform="translate(68.6941,109.934)">
      <path
         d="M 0,0 H 18.112 V -23.121 H 39.5 V 0 H 57.612 V -62.043 H 39.5 v 23.122 H 18.112 V -62.043 H 0 Z"
         style="fill:#333333;fill-opacity:1;fill-rule:nonzero;stroke:none"
         id="path22" />
    </g>
    <g
       id="g24"
       transform="translate(137.3807,109.934)">
      <path
         d="M 0,0 H 47.015 V -13.873 H 18.113 V -23.989 H 43.45 V -38.054 H 18.113 V -48.17 h 28.902 v -13.873 l -47.015,0 z"
         style="fill:#333333;fill-opacity:1;fill-rule:nonzero;stroke:none"
         id="path26" />
    </g>
    <g
       id="g28">
      <g
         id="g30"
         clip-path="url(#clipPath34)">
        <g
           id="g36"
           transform="translate(361.1355,79.8217)">
          <path
             d="m 0,0 c 5.39,0 8.427,2.842 8.427,8.133 0,5.39 -2.548,8.33 -7.838,8.33 H -9.701 V 0 Z M -28.125,30.574 H 4.703 c 15.386,0 22.539,-9.211 22.539,-22.441 0,-8.525 -4.605,-15.189 -11.661,-18.618 1.469,-1.176 2.352,-2.646 3.626,-5.488 l 7.251,-16.561 H 7.251 l -6.662,15.189 c -1.079,2.352 -2.353,3.234 -5.096,3.234 h -5.194 v -18.423 h -18.424 z"
             style="fill:#333333;fill-opacity:1;fill-rule:nonzero;stroke:none"
             id="path38" />
        </g>
        <g
           id="g40"
           transform="translate(397.6847,110.3955)">
          <path
             d="M 0,0 H 47.821 V -14.111 H 18.424 V -24.4 H 44.195 V -38.707 H 18.424 v -10.29 h 29.397 v -14.11 H 0 Z"
             style="fill:#333333;fill-opacity:1;fill-rule:nonzero;stroke:none"
             id="path42" />
        </g>
        <g
           id="g44"
           transform="translate(452.7543,50.2276)">
          <path
             d="m 0,0 v 15.189 c 5.88,-2.744 13.621,-4.606 19.892,-4.606 6.468,0 9.899,0.686 9.899,4.606 0,4.018 -4.116,4.9 -13.622,7.84 -12.738,4.115 -17.051,8.819 -17.051,19.108 0,12.445 8.918,19.011 26.263,19.011 6.958,0 15.091,-1.372 19.696,-2.842 V 43.019 c -6.174,2.45 -11.857,3.43 -16.756,3.43 -5.783,0 -10.388,-0.392 -10.388,-4.214 0,-3.332 2.94,-4.115 11.858,-6.467 C 45.273,31.554 48.606,24.988 48.606,15.189 48.606,3.724 39.786,-3.919 21.755,-3.919 13.23,-3.919 5.292,-2.548 0,0"
             style="fill:#333333;fill-opacity:1;fill-rule:nonzero;stroke:none"
             id="path46" />
        </g>
        <g
           id="g48"
           transform="translate(510.6661,110.3955)">
          <path
             d="M 0,0 H 47.821 V -14.111 H 18.424 V -24.4 H 44.195 V -38.707 H 18.424 v -10.29 h 29.397 v -14.11 H 0 Z"
             style="fill:#333333;fill-opacity:1;fill-rule:nonzero;stroke:none"
             id="path50" />
        </g>
        <g
           id="g52"
           transform="translate(574.147,39.262)">
          <path
             d="M 0,0 V 49.732 H -17.735 V 78.617 H 51.128 V 49.732 H 33.391 L 33.391,0 Z"
             style="fill:#eeeded;fill-opacity:1;fill-rule:nonzero;stroke:none"
             id="path54" />
        </g>
        <g
           id="g56"
           transform="translate(580.6306,96.6765)">
          <path
             d="M 0,0 H -17.736 V 13.719 H 36.161 V 0 H 18.424 V -49.388 H 0 Z"
             style="fill:#333333;fill-opacity:1;fill-rule:nonzero;stroke:none"
             id="path58" />
        </g>
        <g
           id="g60"
           transform="translate(190.2856,39.262)">
          <path
             d="m 0,0 v 78.524 l 68.004,39.262 68.004,-39.262 V 0 L 68.004,-39.262 Z"
             style="fill:#eeeded;fill-opacity:1;fill-rule:nonzero;stroke:none"
             id="path62" />
        </g>
        <g
           id="g64"
           transform="translate(312.6931,47.1142)">
          <path
             d="M 0,0 V 62.82 L -54.404,94.23 -108.807,62.82 V 0 l 54.403,-31.41 z"
             style="fill:#ffffff;fill-opacity:1;fill-rule:nonzero;stroke:none"
             id="path66" />
        </g>
        <g
           id="g68"
           transform="translate(312.6931,47.1142)">
          <path
             d="M 0,0 V 62.82 L -54.404,94.23 -108.807,62.82 V 0 l 54.403,-31.41 z"
             style="fill:none;stroke:#1d1d1b;stroke-width:1;stroke-linecap:butt;stroke-linejoin:miter;stroke-miterlimit:10;stroke-dasharray:none;stroke-opacity:1"
             id="path70" />
        </g>
        <g
           id="g72"
           transform="translate(215.503,53.8214)">
          <path
             d="M 0,0 V 49.406 L 42.787,74.108 85.573,49.406 V 0 L 42.787,-24.703 Z"
             style="fill:#ffffff;fill-opacity:1;fill-rule:nonzero;stroke:none"
             id="path74" />
        </g>
        <g
           id="g76"
           transform="translate(215.503,53.8214)">
          <path
             d="M 0,0 V 49.406 L 42.787,74.108 85.573,49.406 V 0 L 42.787,-24.703 Z"
             style="fill:none;stroke:#1d1d1b;stroke-width:1;stroke-linecap:butt;stroke-linejoin:miter;stroke-miterlimit:10;stroke-dasharray:none;stroke-opacity:1"
             id="path78" />
        </g>
        <g
           id="g80"
           transform="translate(220.8865,56.9293)">
          <path
             d="M 0,0 V 43.189 L 37.403,64.784 74.806,43.189 V 0 L 37.403,-21.594 Z"
             style="fill:#ffffff;fill-opacity:1;fill-rule:nonzero;stroke:none"
             id="path82" />
        </g>
        <g
           id="g84"
           transform="translate(220.8865,56.9293)">
          <path
             d="M 0,0 V 43.189 L 37.403,64.784 74.806,43.189 V 0 L 37.403,-21.594 Z"
             style="fill:none;stroke:#1d1d1b;stroke-width:1;stroke-linecap:butt;stroke-linejoin:miter;stroke-miterlimit:10;stroke-dasharray:none;stroke-opacity:1"
             id="path86" />
        </g>
        <g
           id="g88"
           transform="translate(239.0203,67.399)">
          <path
             d="M 0,0 V 22.25 L 19.269,33.375 38.539,22.25 V 0 l -19.27,-11.125 z"
             style="fill:#ffffff;fill-opacity:1;fill-rule:nonzero;stroke:none"
             id="path90" />
        </g>
        <g
           id="g92"
           transform="translate(239.0203,67.399)">
          <path
             d="M 0,0 V 22.25 L 19.269,33.375 38.539,22.25 V 0 l -19.27,-11.125 z"
             style="fill:none;stroke:#1d1d1b;stroke-width:1;stroke-linecap:butt;stroke-linejoin:miter;stroke-miterlimit:10;stroke-dasharray:none;stroke-opacity:1"
             id="path94" />
        </g>
        <g
           id="g96"
           transform="translate(227.12,60.5283)">
          <path
             d="M 0,0 V 35.992 L 31.17,53.987 62.339,35.992 V 0 L 31.17,-17.996 Z"
             style="fill:none;stroke:#1d1d1b;stroke-width:1;stroke-linecap:butt;stroke-linejoin:miter;stroke-miterlimit:10;stroke-dasharray:none;stroke-opacity:1"
             id="path98" />
        </g>
        <g
           id="g100"
           transform="translate(197.1885,43.1881)">
          <path
             d="m 0,0 v 70.672 l 61.204,35.336 61.203,-35.336 V 0 L 61.204,-35.336 Z"
             style="fill:#333333;fill-opacity:1;fill-rule:nonzero;stroke:none"
             id="path102" />
        </g>
        <g
           id="g104"
           transform="translate(264.0992,38.689)">
          <path
             d="M 0,0 V -19.63 L 42.945,5.164 25.944,14.979 Z"
             style="fill:#eeeded;fill-opacity:1;fill-rule:nonzero;stroke:none"
             id="path106" />
        </g>
        <g
           id="g108"
           transform="translate(252.4799,118.3593)">
          <path
             d="m 0,0 v 19.63 l -42.624,-24.608 17.001,-9.816 z"
             style="fill:#eeeded;fill-opacity:1;fill-rule:nonzero;stroke:none"
             id="path110" />
        </g>
      </g>
    </g>
    <g
       id="g112">
      <g
         id="g114">
        <g
           id="g120">
          <g
             id="g122">
            <path
               d="m 258.289,100.775 11.905,6.867 19.265,-11.122 V 60.529 l 23.234,-13.415 v 62.82 l -54.404,31.41 z"
               style="fill:url(#linearGradient128);stroke:none"
               id="path130" />
          </g>
        </g>
      </g>
    </g>
    <g
       id="g132">
      <g
         id="g134">
        <g
           id="g140">
          <g
             id="g142">
            <path
               d="m 203.989,47.114 54.403,-31.41 V 56.273 L 246.487,49.406 227.223,60.529 V 96.52 l -23.234,13.414 z"
               style="fill:url(#linearGradient148);stroke:none"
               id="path150" />
          </g>
        </g>
      </g>
    </g>
  </g>
</svg>
